<svg xmlns="http://www.w3.org/2000/svg" viewBox="0 0 64 64">
  <rect width="64" height="64" rx="14" fill="#1d3a32"/>
  <path d="M10 22c5 0 5 4 10 4s5-4 10-4 5 4 10 4 5-4 10-4 5 4 10 4" fill="none" stroke="#f4efe6" stroke-linecap="round" stroke-linejoin="round" stroke-width="4"/>
  <path d="M10 32c5 0 5 4 10 4s5-4 10-4 5 4 10 4 5-4 10-4 5 4 10 4" fill="none" stroke="#d6c3a1" stroke-linecap="round" stroke-linejoin="round" stroke-width="4"/>
  <path d="M10 42c5 0 5 4 10 4s5-4 10-4 5 4 10 4 5-4 10-4 5 4 10 4" fill="none" stroke="#f4efe6" stroke-linecap="round" stroke-linejoin="round" stroke-width="4"/>
</svg>
